<svg width="264" height="54" viewBox="0 0 264 54" fill="none" xmlns="http://www.w3.org/2000/svg">
<g clip-path="url(#clip0_54_1034)">
<g clip-path="url(#clip1_54_1034)">
<path fill-rule="evenodd" clip-rule="evenodd" d="M95.5034 37.8873C100.533 37.8873 103.751 34.1697 103.751 29.7024C103.751 24.9852 100.565 21.1115 95.5034 21.1115C93.3479 21.1115 91.9733 21.9862 90.9736 23.1421H90.7237V15.4259H86.1314V37.4187H89.1618L89.849 35.3882H90.1302C91.1924 36.9501 93.1604 37.8873 95.5034 37.8873ZM68.3593 34.6071L67.1409 37.4187H62.0488L71.9206 15.9257H74.2323L84.1041 37.4187H78.9808L77.7624 34.6071H68.3593ZM69.89 31.077H76.2629L73.2014 23.9543H72.9515L69.89 31.077ZM90.6301 29.5151C90.6301 31.8268 92.5045 33.7636 94.9724 33.7636C97.3154 33.7636 99.221 32.0142 99.221 29.5151C99.221 26.9534 97.3466 25.2352 94.9724 25.2352C92.5669 25.2352 90.6301 27.1096 90.6301 29.5151ZM114.401 37.8873C118.899 37.8873 122.304 35.2944 122.304 30.6709V21.6426H117.618V30.2648C117.618 32.4828 116.463 33.6699 114.432 33.6699C112.37 33.6699 111.245 32.4828 111.245 30.2335V21.6113H106.56V30.7022C106.56 35.2631 109.808 37.8873 114.401 37.8873ZM130.674 29.2027V37.4187H125.987V21.5801H129.736L130.173 23.392H130.455C131.361 22.1425 132.829 21.1115 135.422 21.1115C139.733 21.1115 141.982 23.7669 141.982 27.7344V37.4187H137.296V28.734C137.296 26.4847 136.078 25.2976 134.078 25.2976C131.767 25.2976 130.674 27.1096 130.674 29.2027ZM162.003 37.8873C162.816 37.8873 163.535 37.6998 164.222 37.3874V33.3576H163.847C163.659 33.42 163.472 33.4825 163.316 33.4825C162.566 33.4825 162.503 32.8889 162.472 32.0142V15.4259H157.911V23.1421H157.661C156.661 21.9862 155.287 21.1115 153.131 21.1115C148.07 21.1115 144.884 24.9852 144.884 29.7024C144.884 34.1697 148.07 37.8873 153.1 37.8873C155.475 37.8873 157.411 36.9501 158.504 35.3882H158.755C158.772 35.4786 158.791 35.5687 158.812 35.658L158.832 35.7472C159.111 36.8875 159.711 37.8873 162.003 37.8873ZM149.383 29.5151C149.383 32.0142 151.289 33.7636 153.663 33.7636C156.099 33.7636 157.973 31.8268 157.973 29.5151C157.973 27.1096 156.037 25.2352 153.631 25.2352C151.289 25.2352 149.383 26.9534 149.383 29.5151ZM183.244 37.8873C184.055 37.8873 184.774 37.6998 185.461 37.3874V33.3576H185.087C184.899 33.42 184.712 33.4825 184.555 33.4825C183.806 33.4825 183.743 32.8889 183.712 32.0142V21.6114H180.337L179.901 23.4545H179.65C178.651 22.2674 177.214 21.1115 174.371 21.1115C169.311 21.1115 166.124 24.9852 166.124 29.7024C166.124 34.1697 169.311 37.8873 174.34 37.8873C176.714 37.8873 178.651 36.9501 179.745 35.3882H179.994C180.012 35.4786 180.03 35.5687 180.051 35.658L180.072 35.7472C180.35 36.8875 180.951 37.8873 183.244 37.8873ZM170.623 29.5151C170.623 32.0142 172.528 33.7636 174.902 33.7636C177.339 33.7636 179.214 31.8268 179.214 29.5151C179.214 27.1096 177.276 25.2352 174.871 25.2352C172.528 25.2352 170.623 26.9534 170.623 29.5151ZM193.018 37.4187V29.2027C193.018 27.1096 194.112 25.2976 196.423 25.2976C198.422 25.2976 199.641 26.4847 199.641 28.734V37.4187H204.327V27.7344C204.327 23.7669 202.077 21.1115 197.767 21.1115C195.174 21.1115 193.705 22.1425 192.799 23.392H192.519L192.081 21.5801H188.332V37.4187H193.018ZM220.819 36.7939C219.631 37.45 217.975 37.9185 216.007 37.9185C210.665 37.9185 207.229 34.3884 207.229 29.5151C207.229 24.6104 210.697 21.1115 215.976 21.1115C217.944 21.1115 219.631 21.5489 220.819 22.2361V26.3286H220.474C219.475 25.735 218.007 25.3289 216.382 25.3289C213.789 25.3289 212.009 26.9846 212.009 29.5151C212.009 32.0142 213.726 33.7324 216.414 33.7324C218.038 33.7324 219.475 33.2951 220.474 32.7015H220.819V36.7939ZM231.874 37.9185C234.467 37.9185 236.404 37.5125 238.122 36.5439V33.2013H237.809C236.153 33.9199 234.686 34.2323 232.561 34.2323C230.281 34.2323 227.907 33.4825 227.345 30.8583H238.685C239.06 30.0462 239.184 29.0152 239.184 28.1405C239.184 24.2043 236.279 21.1115 231.405 21.1115C226.657 21.1115 223.033 24.2355 223.033 29.5463C223.033 34.6696 226.563 37.9185 231.874 37.9185ZM227.376 27.9218H235.247V27.7032C235.186 25.9537 233.78 24.4854 231.468 24.4854C229.563 24.4854 227.876 25.4851 227.376 27.9218Z" fill="white"/>
<path d="M145.77 51.9718H143.287L142.699 53.517H141.333L143.93 46.8812H144.518C144.93 46.8812 145.207 47.0708 145.353 47.45L147.713 53.517H146.348L145.77 51.9718ZM143.637 50.8721H145.419L144.538 48.4833H144.528L143.637 50.8721Z" fill="white"/>
<path d="M124.098 46.8812H127.624C128.199 46.8812 128.661 47.036 129.008 47.3458C129.362 47.6554 129.539 48.063 129.539 48.5686V49.2322C129.539 49.5608 129.444 49.8483 129.254 50.0948C129.072 50.335 128.803 50.5182 128.449 50.6446V50.6636C128.651 50.7964 128.803 50.948 128.904 51.1187C129.011 51.2893 129.116 51.5263 129.217 51.8296L129.748 53.517H128.392L127.889 51.9433C127.808 51.6716 127.694 51.4694 127.549 51.3367C127.403 51.204 127.223 51.1376 127.008 51.1376H125.406V53.517H124.098V46.8812ZM127.378 50.0095C127.643 50.0095 127.852 49.94 128.003 49.8009C128.155 49.6556 128.231 49.4692 128.231 49.2417V48.6255C128.231 48.4422 128.174 48.2968 128.06 48.1894C127.946 48.0757 127.795 48.0188 127.605 48.0188H125.406V50.0095H127.378Z" fill="white"/>
<path d="M107.722 53.517C107.451 53.517 107.23 53.4349 107.059 53.2705C106.888 53.1062 106.803 52.8913 106.803 52.6259V46.8812H110.102C110.702 46.8812 111.183 47.0234 111.543 47.3078C111.909 47.5922 112.093 47.9745 112.093 48.4548V48.9288C112.093 49.1374 112.039 49.3364 111.932 49.526C111.831 49.7156 111.686 49.8704 111.495 49.9906V50C111.798 50.1075 112.042 50.2813 112.225 50.5214C112.415 50.7615 112.51 51.0301 112.51 51.3271V51.8201C112.51 52.3384 112.321 52.7522 111.941 53.062C111.568 53.3653 111.062 53.517 110.424 53.517H107.722ZM110.102 49.6304C110.305 49.6304 110.469 49.5671 110.595 49.4407C110.722 49.308 110.785 49.1342 110.785 48.9194V48.5971C110.785 48.4201 110.718 48.281 110.585 48.1799C110.453 48.0724 110.276 48.0188 110.054 48.0188H108.111V49.6304H110.102ZM110.329 52.3794C110.608 52.3794 110.823 52.3257 110.974 52.2182C111.126 52.1045 111.202 51.9466 111.202 51.7443V51.3271C111.202 51.1439 111.135 50.9954 111.002 50.8816C110.87 50.7679 110.693 50.711 110.472 50.711H108.111V52.3794H110.329Z" fill="white"/>
<path d="M161.649 53.6687C160.954 53.6687 160.41 53.4759 160.019 53.0904C159.627 52.6986 159.431 52.1551 159.431 51.4599H160.72C160.72 51.7885 160.802 52.0476 160.967 52.2373C161.137 52.4205 161.371 52.5122 161.667 52.5122H162.721C162.998 52.5122 163.222 52.4553 163.393 52.3415C163.571 52.2215 163.659 52.0634 163.659 51.8675V51.5452C163.659 51.2356 163.431 51.0428 162.976 50.9669L161.232 50.6731C160.663 50.5783 160.231 50.3982 159.933 50.1328C159.643 49.861 159.497 49.5166 159.497 49.0995V48.5686C159.497 48.2336 159.586 47.9398 159.762 47.687C159.946 47.4279 160.202 47.2288 160.53 47.0898C160.866 46.9507 161.25 46.8812 161.687 46.8812H162.758C163.169 46.8812 163.532 46.9665 163.848 47.1372C164.164 47.3078 164.408 47.5479 164.579 47.8576C164.755 48.161 164.844 48.5149 164.844 48.9194H163.555C163.555 48.6539 163.481 48.4422 163.336 48.2842C163.191 48.1199 162.998 48.0377 162.758 48.0377H161.687C161.421 48.0377 161.206 48.0946 161.042 48.2084C160.884 48.3221 160.806 48.4738 160.806 48.6634V48.9194C160.806 49.2353 161.024 49.4312 161.459 49.5071L163.194 49.8105C163.769 49.9115 164.209 50.0917 164.512 50.3508C164.815 50.6036 164.967 50.9322 164.967 51.3367V51.9624C164.967 52.2972 164.872 52.5943 164.683 52.8534C164.499 53.1126 164.24 53.3147 163.905 53.4601C163.571 53.5992 163.182 53.6687 162.739 53.6687H161.649Z" fill="white"/>
<path d="M176.667 46.8812H177.975V53.517H176.667V46.8812Z" fill="white"/>
<path d="M190.513 53.517C190.235 53.517 190.011 53.438 189.84 53.28C189.675 53.1157 189.594 52.9008 189.594 52.6354V46.8812H190.902V52.3794H194.504V53.517H190.513Z" fill="white"/>
<path fill-rule="evenodd" clip-rule="evenodd" d="M25.8537 47.8292C27.1517 47.8292 28.2039 48.871 28.2039 50.156C28.2039 51.4411 27.1517 52.4828 25.8537 52.4828C24.5556 52.4828 23.5033 51.4411 23.5033 50.156C23.5033 48.871 24.5556 47.8292 25.8537 47.8292ZM39.2887 46.5643C39.7575 47.368 39.4793 48.3958 38.6674 48.8599C37.8555 49.3239 36.8173 49.0485 36.3487 48.2448C35.8799 47.4409 36.1581 46.4132 36.97 45.9492C37.7818 45.4851 38.8199 45.7604 39.2887 46.5643ZM14.7373 45.9492C15.5492 46.4132 15.8275 47.4409 15.3587 48.2448C14.89 49.0485 13.8517 49.3239 13.0399 48.8599C12.228 48.3958 11.9498 47.368 12.4186 46.5643C12.8873 45.7604 13.9255 45.4851 14.7373 45.9492ZM34.8457 11.4687C36.2904 12.2944 36.8563 14.0481 36.2189 15.5299C38.557 17.6196 40.2391 20.4151 40.9229 23.5771C42.4512 23.8459 43.6117 25.168 43.6117 26.7585C43.6117 28.3489 42.4512 29.671 40.9229 29.9401C40.2262 33.1611 38.4935 36.002 36.0868 38.104C36.5654 39.5293 35.9849 41.1385 34.6196 41.9189C33.2312 42.7125 31.4987 42.3816 30.4981 41.2116C29.0716 41.6479 27.5556 41.8828 25.9842 41.8828C24.3366 41.8828 22.7499 41.6246 21.2631 41.1468C20.2723 42.3691 18.5016 42.7271 17.0877 41.9189C15.6663 41.1066 15.0956 39.3956 15.6849 37.9293C13.3895 35.8538 11.7359 33.0941 11.0535 29.9762C9.39446 29.8232 8.09559 28.441 8.09559 26.7585C8.09559 25.0758 9.39446 23.6936 11.0537 23.5408C11.7241 20.477 13.3323 17.7591 15.566 15.6964C14.8095 14.1819 15.3624 12.3255 16.8616 11.4687C18.3361 10.6259 20.1988 11.0514 21.1606 12.4034L21.3839 12.3318C22.8357 11.8785 24.3812 11.634 25.9842 11.634C27.5919 11.634 29.1415 11.8799 30.5969 12.3356C31.5715 11.0373 33.3962 10.6401 34.8457 11.4687ZM7.30846 37.2292C7.9575 38.3421 7.57234 39.7652 6.44819 40.4076C5.32404 41.0502 3.8866 40.6689 3.23757 39.556C2.58855 38.4431 2.97371 37.0201 4.09785 36.3775C5.222 35.735 6.65944 36.1163 7.30846 37.2292ZM47.6095 36.3775C48.7336 37.0201 49.1187 38.4431 48.4698 39.556C47.8207 40.6689 46.3832 41.0502 45.2592 40.4076C44.135 39.7652 43.7498 38.3421 44.3989 37.2292C45.0478 36.1163 46.4853 35.735 47.6095 36.3775ZM25.9842 13.7023C24.5054 13.7023 23.0834 13.9434 21.7561 14.3878C21.7147 15.4609 21.1344 16.4897 20.1259 17.0661C19.1432 17.6278 17.9882 17.6262 17.0423 17.1624C15.0785 18.9561 13.6668 21.3334 13.0877 24.0162C14.0106 24.5871 14.6243 25.6018 14.6243 26.7585C14.6243 27.915 14.0105 28.9298 13.0879 29.5007C13.6663 32.1813 15.0762 34.5569 17.0373 36.3506C18.0216 35.7655 19.2879 35.7132 20.3521 36.3214C21.4241 36.9343 22.0123 38.0581 21.9838 39.2027C23.2453 39.6002 24.5894 39.8145 25.9842 39.8145C27.2842 39.8145 28.5403 39.6283 29.7267 39.2814C29.6684 38.1097 30.2588 36.9482 31.3553 36.3214C32.4757 35.681 33.8204 35.773 34.8236 36.4473C36.8083 34.6722 38.2448 32.3073 38.8517 29.6319C37.801 29.0944 37.083 28.0095 37.083 26.7585C37.083 25.5075 37.801 24.4224 38.8514 23.8854C38.2455 21.2126 36.8116 18.8502 34.8305 17.0752C33.8561 17.624 32.6221 17.661 31.5814 17.0661C30.5463 16.4744 29.9622 15.4062 29.9489 14.3029C28.6977 13.9126 27.3658 13.7023 25.9842 13.7023ZM26.7403 20.604C26.9727 20.7379 27.1663 20.9287 27.3028 21.1581L31.7765 28.6865C32.2154 29.4249 31.9665 30.3756 31.2205 30.8101C30.9798 30.9504 30.7055 31.0243 30.426 31.0243H21.5272C20.662 31.0243 19.9604 30.3298 19.9604 29.4731C19.9604 29.199 20.0337 28.9298 20.173 28.6929L24.5979 21.1645C25.0332 20.4241 25.9923 20.1731 26.7403 20.604ZM50.0098 25.078C50.9473 25.078 51.7073 25.8303 51.7073 26.7585C51.7073 27.6866 50.9473 28.439 50.0098 28.439C49.0724 28.439 48.3123 27.6866 48.3123 26.7585C48.3123 25.8303 49.0724 25.078 50.0098 25.078ZM1.69746 25.078C2.63494 25.078 3.39492 25.8303 3.39492 26.7585C3.39492 27.6866 2.63494 28.439 1.69746 28.439C0.75998 28.439 0 27.6866 0 26.7585C0 25.8303 0.75998 25.078 1.69746 25.078ZM48.4698 13.7023C49.1187 14.8152 48.7336 16.2383 47.6095 16.8808C46.4853 17.5234 45.0478 17.1421 44.3989 16.0292C43.7498 14.9163 44.135 13.4932 45.2592 12.8507C46.3832 12.2081 47.8207 12.5894 48.4698 13.7023ZM6.44819 12.8507C7.57234 13.4932 7.9575 14.9163 7.30846 16.0292C6.65944 17.1421 5.222 17.5234 4.09785 16.8808C2.97371 16.2383 2.58855 14.8152 3.23757 13.7023C3.8866 12.5894 5.32404 12.2081 6.44819 12.8507ZM15.1325 5.14288C15.6012 5.94664 15.3231 6.97441 14.5112 7.43847C13.6993 7.90252 12.6612 7.62714 12.1925 6.82336C11.7237 6.0196 12.0019 4.99183 12.8137 4.52778C13.6256 4.06372 14.6638 4.33911 15.1325 5.14288ZM38.8936 4.52778C39.7054 4.99183 39.9836 6.0196 39.5148 6.82336C39.0462 7.62714 38.008 7.90252 37.1961 7.43847C36.3842 6.97441 36.1061 5.94664 36.5748 5.14288C37.0436 4.33911 38.0817 4.06372 38.8936 4.52778ZM25.8537 0.775513C27.1517 0.775513 28.2039 1.81727 28.2039 3.10234C28.2039 4.38741 27.1517 5.42917 25.8537 5.42917C24.5556 5.42917 23.5033 4.38741 23.5033 3.10234C23.5033 1.81727 24.5556 0.775513 25.8537 0.775513Z" fill="white"/>
</g>
</g>
<defs>
<clipPath id="clip0_54_1034">
<rect width="240" height="53" fill="white" transform="translate(0 0.775513)"/>
</clipPath>
<clipPath id="clip1_54_1034">
<rect width="239.481" height="53" fill="white" transform="translate(0 0.775513)"/>
</clipPath>
</defs>
</svg>
